<?xml version="1.0" standalone="no"?>
<!DOCTYPE svg PUBLIC "-//W3C//DTD SVG 20010904//EN"
 "http://www.w3.org/TR/2001/REC-SVG-20010904/DTD/svg10.dtd">
<svg version="1.0" xmlns="http://www.w3.org/2000/svg"
 width="512.000000pt" height="512.000000pt" viewBox="0 0 512.000000 512.000000"
 preserveAspectRatio="xMidYMid meet">
<metadata>
Created by potrace 1.11, written by Peter Selinger 2001-2013
</metadata>
<g transform="translate(0.000000,512.000000) scale(0.100000,-0.100000)"
fill="#000000" stroke="none">
<path d="M1687 3999 c7 -7 15 -10 18 -7 3 3 -2 9 -12 12 -14 6 -15 5 -6 -5z"/>
<path d="M2299 4008 c-5 -18 -6 -38 -1 -34 7 8 12 36 6 36 -2 0 -4 -1 -5 -2z"/>
<path d="M1333 3985 c0 -8 4 -12 9 -9 5 3 6 10 3 15 -9 13 -12 11 -12 -6z"/>
<path d="M1813 3985 c0 -8 4 -12 9 -9 5 3 6 10 3 15 -9 13 -12 11 -12 -6z"/>
<path d="M2173 3985 c0 -8 4 -12 9 -9 5 3 6 10 3 15 -9 13 -12 11 -12 -6z"/>
<path d="M2693 3985 c0 -8 4 -12 9 -9 5 3 6 10 3 15 -9 13 -12 11 -12 -6z"/>
<path d="M3013 3985 c0 -8 4 -12 9 -9 5 3 6 10 3 15 -9 13 -12 11 -12 -6z"/>
<path d="M3333 3985 c0 -8 4 -12 9 -9 5 3 6 10 3 15 -9 13 -12 11 -12 -6z"/>
<path d="M3653 3985 c0 -8 4 -12 9 -9 5 3 6 10 3 15 -9 13 -12 11 -12 -6z"/>
<path d="M1139 3953 c-13 -16 -12 -17 4 -4 9 7 17 15 17 17 0 8 -8 3 -21 -13z"/>
<path d="M1370 3961 c0 -6 4 -13 10 -16 6 -3 7 1 4 9 -7 18 -14 21 -14 7z"/>
<path d="M2566 3962 c-3 -5 1 -9 9 -9 8 0 12 4 9 9 -3 4 -7 8 -9 8 -2 0 -6 -4
-9 -8z"/>
<path d="M2750 3959 c0 -5 5 -7 10 -4 6 3 10 8 10 11 0 2 -4 4 -10 4 -5 0 -10
-5 -10 -11z"/>
<path d="M2886 3962 c-3 -5 1 -9 9 -9 8 0 12 4 9 9 -3 4 -7 8 -9 8 -2 0 -6 -4
-9 -8z"/>
<path d="M3070 3959 c0 -5 5 -7 10 -4 6 3 10 8 10 11 0 2 -4 4 -10 4 -5 0 -10
-5 -10 -11z"/>
<path d="M3206 3962 c-3 -5 1 -9 9 -9 8 0 12 4 9 9 -3 4 -7 8 -9 8 -2 0 -6 -4
-9 -8z"/>
<path d="M3390 3959 c0 -5 5 -7 10 -4 6 3 10 8 10 11 0 2 -4 4 -10 4 -5 0 -10
-5 -10 -11z"/>
<path d="M3526 3962 c-3 -5 1 -9 9 -9 8 0 12 4 9 9 -3 4 -7 8 -9 8 -2 0 -6 -4
-9 -8z"/>
<path d="M3710 3959 c0 -5 5 -7 10 -4 6 3 10 8 10 11 0 2 -4 4 -10 4 -5 0 -10
-5 -10 -11z"/>
<path d="M1207 3933 c-1 0 -18 -3 -37 -4 -19 -2 -41 -9 -48 -16 -8 -7 -18 -10
-24 -7 -7 4 -8 2 -4 -4 4 -7 3 -12 -3 -12 -14 0 -42 -55 -33 -65 4 -5 -1 -5
-10 -2 -10 4 -18 2 -18 -3 0 -6 4 -10 9 -10 6 0 10 -61 10 -141 1 -110 -2
-139 -11 -133 -10 6 -11 4 0 -7 6 -7 12 -23 12 -35 0 -12 -6 -25 -12 -27 -10
-4 -10 -6 0 -6 8 -1 12 -21 12 -64 0 -37 -5 -69 -12 -76 -9 -10 -9 -12 -1 -7
9 5 11 -25 10 -121 -1 -90 -5 -128 -14 -128 -6 0 -15 -3 -19 -7 -3 -4 3 -6 14
-3 19 3 20 -1 19 -73 -1 -51 -6 -77 -14 -77 -6 0 -15 -3 -19 -7 -3 -4 3 -6 15
-3 19 4 21 0 21 -52 0 -39 -5 -63 -17 -77 -17 -19 -17 -20 -1 -7 16 12 18 5
17 -117 0 -92 -3 -132 -12 -136 -9 -3 -9 -5 1 -5 16 -1 16 -122 0 -140 -9 -10
-9 -12 -1 -7 9 5 12 -24 12 -119 -1 -88 -4 -125 -12 -126 -7 0 -3 -4 8 -9 11
-5 16 -9 10 -9 -6 -1 -9 -29 -8 -68 2 -41 -2 -72 -10 -82 -9 -12 -9 -13 0 -7
9 5 13 -3 13 -31 1 -59 4 -93 8 -88 6 6 57 -48 54 -58 -1 -5 2 -6 7 -2 16 10
58 -5 58 -21 0 -8 -6 -13 -13 -10 -8 3 -16 1 -19 -5 -4 -5 -3 -9 2 -8 28 5 32
-4 32 -68 -1 -38 -6 -74 -12 -82 -9 -11 -9 -13 0 -8 20 12 15 -81 -5 -94 -16
-10 -16 -10 0 -5 15 4 17 -7 17 -122 0 -70 3 -126 6 -126 10 2 93 94 86 94 -3
0 5 11 19 25 31 30 39 40 73 90 15 22 28 36 28 32 1 -4 2 -11 3 -16 0 -5 4
-13 8 -17 4 -3 5 4 3 17 -5 26 21 73 35 64 6 -4 7 1 3 11 -5 14 -3 16 11 11
11 -5 15 -3 10 5 -4 6 -1 16 7 22 8 6 19 20 25 31 7 11 19 19 28 19 13 -2 14
1 5 12 -9 11 -8 15 5 20 9 3 16 11 16 18 0 6 9 18 20 26 11 8 20 19 20 25 0 6
11 21 23 32 19 16 40 20 106 22 52 1 81 -2 77 -8 -4 -5 -2 -13 4 -16 6 -4 9
-1 8 7 -2 10 53 13 291 15 161 1 300 4 307 7 9 3 14 -1 15 -12 0 -10 3 -12 6
-5 3 10 47 13 169 12 93 0 162 -4 159 -9 -3 -5 -1 -12 5 -15 6 -4 9 -1 8 7 -2
10 57 13 315 15 184 1 315 -2 312 -7 -3 -5 -1 -12 5 -15 6 -4 9 -1 8 7 -2 10
34 13 177 15 99 1 227 2 285 3 76 2 104 -1 102 -10 -1 -6 2 -8 8 -5 6 4 9 9 6
13 -9 8 27 31 49 32 17 0 17 2 5 10 -13 9 -7 14 12 11 4 0 4 7 1 16 -4 11 -3
14 5 9 8 -5 10 -2 6 8 -3 9 -2 16 4 16 5 0 7 12 4 26 -3 16 1 30 9 35 10 6 10
9 2 9 -7 0 -13 11 -13 25 0 14 6 25 13 25 9 0 9 2 -1 8 -9 6 -12 41 -11 133 1
119 9 156 32 142 6 -3 7 -1 3 6 -6 9 -11 9 -22 0 -12 -9 -14 -6 -14 21 0 27 2
30 14 21 11 -9 16 -9 22 1 4 7 4 10 -1 6 -13 -12 -35 12 -35 37 0 13 6 26 13
28 7 3 4 6 -6 6 -10 1 -15 6 -12 11 4 6 12 7 18 3 9 -5 9 -3 0 8 -15 19 -15
119 0 138 9 12 9 13 0 7 -7 -4 -13 -3 -13 2 0 15 26 33 35 24 5 -4 5 -1 1 6
-6 10 -11 10 -22 1 -12 -9 -14 -6 -14 21 0 27 2 30 14 21 11 -9 16 -9 22 1 4
7 4 10 -1 6 -13 -12 -35 12 -35 37 0 13 6 26 13 28 7 3 4 6 -6 6 -10 1 -15 6
-12 11 4 6 12 7 18 3 9 -5 9 -3 0 8 -15 19 -15 119 0 138 9 11 9 13 0 8 -8 -5
-11 43 -11 188 0 142 3 195 11 195 8 0 8 3 -1 9 -18 11 -13 137 6 133 8 -1 11
2 7 8 -3 6 -11 8 -16 5 -12 -8 -9 107 3 122 6 7 15 10 21 6 6 -3 7 -1 3 6 -6
9 -11 9 -22 0 -12 -9 -14 -6 -14 21 0 27 2 30 14 21 11 -9 16 -9 22 1 4 7 4
10 -1 6 -13 -12 -35 12 -35 37 0 13 6 26 13 28 8 4 7 6 -3 6 -12 1 -15 11 -12
44 3 23 10 45 16 49 8 6 7 8 -1 8 -7 0 -13 12 -13 26 0 17 4 23 13 19 6 -4 3
1 -8 10 -16 13 -17 19 -8 34 10 15 9 18 -5 17 -10 0 -16 6 -16 16 1 10 -1 17
-5 16 -3 -1 -24 6 -46 16 -37 16 -127 18 -1413 19 -756 1 -1374 1 -1375 0z"/>
<path d="M1016 3778 c3 -5 10 -6 15 -3 13 9 11 12 -6 12 -8 0 -12 -4 -9 -9z"/>
<path d="M1015 3700 c-3 -5 -1 -10 4 -10 6 0 11 5 11 10 0 6 -2 10 -4 10 -3 0
-8 -4 -11 -10z"/>
<path d="M990 3600 c0 -5 5 -10 11 -10 5 0 7 5 4 10 -3 6 -8 10 -11 10 -2 0
-4 -4 -4 -10z"/>
<path d="M4090 3500 c0 -5 5 -10 11 -10 5 0 7 5 4 10 -3 6 -8 10 -11 10 -2 0
-4 -4 -4 -10z"/>
<path d="M1015 3441 c-3 -5 -2 -12 3 -15 5 -3 9 1 9 9 0 17 -3 19 -12 6z"/>
<path d="M990 3360 c0 -5 5 -10 11 -10 5 0 7 5 4 10 -3 6 -8 10 -11 10 -2 0
-4 -4 -4 -10z"/>
<path d="M1015 3220 c-3 -5 -1 -10 4 -10 6 0 11 5 11 10 0 6 -2 10 -4 10 -3 0
-8 -4 -11 -10z"/>
<path d="M4086 3218 c3 -5 10 -6 15 -3 13 9 11 12 -6 12 -8 0 -12 -4 -9 -9z"/>
<path d="M4086 3138 c3 -5 10 -6 15 -3 13 9 11 12 -6 12 -8 0 -12 -4 -9 -9z"/>
<path d="M1016 3098 c3 -5 10 -6 15 -3 13 9 11 12 -6 12 -8 0 -12 -4 -9 -9z"/>
<path d="M4090 3019 c0 -5 5 -7 10 -4 6 3 10 8 10 11 0 2 -4 4 -10 4 -5 0 -10
-5 -10 -11z"/>
<path d="M1016 2938 c3 -5 10 -6 15 -3 13 9 11 12 -6 12 -8 0 -12 -4 -9 -9z"/>
<path d="M4086 2898 c3 -5 10 -6 15 -3 13 9 11 12 -6 12 -8 0 -12 -4 -9 -9z"/>
<path d="M1016 2818 c3 -5 10 -6 15 -3 13 9 11 12 -6 12 -8 0 -12 -4 -9 -9z"/>
<path d="M4116 2822 c-3 -5 1 -9 9 -9 8 0 12 4 9 9 -3 4 -7 8 -9 8 -2 0 -6 -4
-9 -8z"/>
<path d="M4120 2780 c-9 -6 -10 -10 -3 -10 6 0 15 5 18 10 8 12 4 12 -15 0z"/>
<path d="M986 2682 c-3 -5 1 -9 9 -9 8 0 12 4 9 9 -3 4 -7 8 -9 8 -2 0 -6 -4
-9 -8z"/>
<path d="M1015 2620 c3 -5 8 -10 11 -10 2 0 4 5 4 10 0 6 -5 10 -11 10 -5 0
-7 -4 -4 -10z"/>
<path d="M4116 2502 c-3 -5 1 -9 9 -9 8 0 12 4 9 9 -3 4 -7 8 -9 8 -2 0 -6 -4
-9 -8z"/>
<path d="M1015 2481 c-3 -5 -2 -12 3 -15 5 -3 9 1 9 9 0 17 -3 19 -12 6z"/>
<path d="M4120 2460 c-9 -6 -10 -10 -3 -10 6 0 15 5 18 10 8 12 4 12 -15 0z"/>
<path d="M990 2400 c0 -5 5 -10 11 -10 5 0 7 5 4 10 -3 6 -8 10 -11 10 -2 0
-4 -4 -4 -10z"/>
<path d="M1015 2260 c-3 -5 -1 -10 4 -10 6 0 11 5 11 10 0 6 -2 10 -4 10 -3 0
-8 -4 -11 -10z"/>
<path d="M4090 2219 c0 -5 5 -7 10 -4 6 3 10 8 10 11 0 2 -4 4 -10 4 -5 0 -10
-5 -10 -11z"/>
<path d="M1006 2082 c-3 -5 1 -9 9 -9 8 0 12 4 9 9 -3 4 -7 8 -9 8 -2 0 -6 -4
-9 -8z"/>
<path d="M4106 2078 c3 -5 10 -6 15 -3 13 9 11 12 -6 12 -8 0 -12 -4 -9 -9z"/>
<path d="M986 2018 c3 -5 10 -6 15 -3 13 9 11 12 -6 12 -8 0 -12 -4 -9 -9z"/>
<path d="M986 1982 c-3 -5 1 -9 9 -9 8 0 12 4 9 9 -3 4 -7 8 -9 8 -2 0 -6 -4
-9 -8z"/>
<path d="M1016 1898 c3 -5 10 -6 15 -3 13 9 11 12 -6 12 -8 0 -12 -4 -9 -9z"/>
<path d="M1016 1867 c3 -10 9 -15 12 -12 3 3 0 11 -7 18 -10 9 -11 8 -5 -6z"/>
<path d="M1055 1780 c-3 -5 -1 -10 4 -10 6 0 11 5 11 10 0 6 -2 10 -4 10 -3 0
-8 -4 -11 -10z"/>
<path d="M1130 1739 c0 -5 5 -7 10 -4 6 3 10 8 10 11 0 2 -4 4 -10 4 -5 0 -10
-5 -10 -11z"/>
<path d="M2116 1727 c3 -10 9 -15 12 -12 3 3 0 11 -7 18 -10 9 -11 8 -5 -6z"/>
<path d="M2216 1727 c3 -10 9 -15 12 -12 3 3 0 11 -7 18 -10 9 -11 8 -5 -6z"/>
<path d="M2497 1730 c7 -8 20 -15 29 -16 9 -1 13 1 9 4 -4 4 -10 7 -13 7 -4 0
-14 4 -22 9 -12 7 -13 6 -3 -4z"/>
<path d="M2596 1727 c3 -10 9 -15 12 -12 3 3 0 11 -7 18 -10 9 -11 8 -5 -6z"/>
<path d="M3076 1727 c3 -10 9 -15 12 -12 3 3 0 11 -7 18 -10 9 -11 8 -5 -6z"/>
<path d="M3176 1727 c3 -10 9 -15 12 -12 3 3 0 11 -7 18 -10 9 -11 8 -5 -6z"/>
<path d="M3236 1727 c3 -10 9 -15 12 -12 3 3 0 11 -7 18 -10 9 -11 8 -5 -6z"/>
<path d="M3716 1727 c3 -10 9 -15 12 -12 3 3 0 11 -7 18 -10 9 -11 8 -5 -6z"/>
<path d="M1639 1728 c-5 -18 -6 -38 -1 -34 7 8 12 36 6 36 -2 0 -4 -1 -5 -2z"/>
<path d="M3996 1722 c-3 -5 1 -9 9 -9 8 0 12 4 9 9 -3 4 -7 8 -9 8 -2 0 -6 -4
-9 -8z"/>
<path d="M2669 1683 c-13 -16 -12 -17 4 -4 16 13 21 21 13 21 -2 0 -10 -8 -17
-17z"/>
<path d="M3309 1683 c-13 -16 -12 -17 4 -4 16 13 21 21 13 21 -2 0 -10 -8 -17
-17z"/>
<path d="M1965 1680 c-3 -6 1 -7 9 -4 18 7 21 14 7 14 -6 0 -13 -4 -16 -10z"/>
<path d="M2925 1680 c-3 -6 1 -7 9 -4 18 7 21 14 7 14 -6 0 -13 -4 -16 -10z"/>
<path d="M1137 1575 c-4 -8 -3 -16 1 -19 4 -3 9 4 9 15 2 23 -3 25 -10 4z"/>
<path d="M1155 1400 c3 -5 8 -10 11 -10 2 0 4 5 4 10 0 6 -5 10 -11 10 -5 0
-7 -4 -4 -10z"/>
<path d="M1159 1368 c-5 -18 -6 -38 -1 -34 7 8 12 36 6 36 -2 0 -4 -1 -5 -2z"/>
</g>
</svg>
